<svg width="111" height="16" viewBox="0 0 111 16" fill="none" xmlns="http://www.w3.org/2000/svg">
<path fill-rule="evenodd" clip-rule="evenodd" d="M17.9683 11.74H12.6683L11.2683 15.16H8.96828L15.4083 0H15.5483L21.9883 15.16H19.3083L17.9683 11.74ZM17.1883 9.74L15.3683 5.14L13.4883 9.74H17.1883ZM8.84 0.599999V2.84H2.34V2.84048L0 2.8404V0.599999H8.84ZM0 6.94016V15.16H2.34V9.16H8V6.94H3V6.94016H0ZM28.7727 2.58C29.746 2.58 30.8593 2.90667 32.1127 3.56L32.9927 1.78C32.366 1.38 31.686 1.07333 30.9527 0.86C30.2327 0.633333 29.3927 0.519999 28.4327 0.519999C27.1127 0.573333 26.046 0.966666 25.2327 1.7C24.4327 2.42 24.0327 3.37333 24.0327 4.56C24.0327 5.37333 24.226 6.05333 24.6127 6.6C25.0127 7.13333 25.486 7.55333 26.0327 7.86C26.5793 8.15333 27.266 8.45333 28.0927 8.76C28.8927 9.06667 29.5127 9.40667 29.9527 9.78C30.406 10.1533 30.6327 10.62 30.6327 11.18C30.6327 11.8867 30.366 12.4133 29.8327 12.76C29.2993 13.0933 28.6793 13.26 27.9727 13.26C27.3993 13.26 26.7727 13.14 26.0927 12.9C25.426 12.6467 24.846 12.3333 24.3527 11.96L23.3127 13.78C23.9793 14.26 24.7393 14.64 25.5927 14.92C26.446 15.1867 27.3127 15.32 28.1927 15.32C29.1927 15.32 30.0593 15.1333 30.7927 14.76C31.526 14.3867 32.086 13.8867 32.4727 13.26C32.8593 12.6333 33.0527 11.9333 33.0527 11.16C33.0527 10.3067 32.886 9.6 32.5527 9.04C32.2193 8.48 31.7927 8.04 31.2727 7.72C30.766 7.38667 30.1527 7.09333 29.4327 6.84C28.486 6.48 27.746 6.12 27.2127 5.76C26.6927 5.38667 26.4327 4.92667 26.4327 4.38C26.4327 3.82 26.6393 3.38 27.0527 3.06C27.4793 2.74 28.0527 2.58 28.7727 2.58ZM47.9533 15.16H45.6133V8.96H38.4533V15.16H36.1133V0.599999H38.4533V6.74H45.6133V0.599999H47.9533V15.16ZM54.2931 15.16V0.599999H51.9531V15.16H54.2931ZM57.4008 7.9C57.4008 6.56667 57.7341 5.33333 58.4008 4.2C59.0674 3.05333 59.9674 2.14 61.1008 1.46C62.2474 0.779999 63.4941 0.439999 64.8408 0.439999C66.1741 0.439999 67.4074 0.779999 68.5408 1.46C69.6874 2.14 70.6008 3.05333 71.2808 4.2C71.9608 5.34667 72.3008 6.58 72.3008 7.9C72.3008 9.24667 71.9608 10.4867 71.2808 11.62C70.6141 12.7533 69.7075 13.6533 68.5608 14.32C67.4141 14.9867 66.1741 15.32 64.8408 15.32C63.4941 15.32 62.2474 14.9933 61.1008 14.34C59.9674 13.6733 59.0674 12.7733 58.4008 11.64C57.7341 10.5067 57.4008 9.26 57.4008 7.9ZM59.8008 7.9C59.8008 8.84667 60.0274 9.71333 60.4808 10.5C60.9341 11.2867 61.5474 11.9133 62.3208 12.38C63.1074 12.8467 63.9674 13.08 64.9008 13.08C65.8208 13.08 66.6608 12.8533 67.4208 12.4C68.1808 11.9333 68.7808 11.3067 69.2208 10.52C69.6741 9.72 69.9008 8.84667 69.9008 7.9C69.9008 6.95333 69.6741 6.08 69.2208 5.28C68.7674 4.48 68.1541 3.84667 67.3808 3.38C66.6075 2.91333 65.7608 2.68 64.8408 2.68C63.9074 2.68 63.0541 2.91333 62.2808 3.38C61.5208 3.84667 60.9141 4.48 60.4608 5.28C60.0208 6.08 59.8008 6.95333 59.8008 7.9ZM77.7102 5.5L87.5 15.1602L97.44 15.16V12.92H89.84V8.96H96.36V6.72H89.84V2.84H97.16V0.599999H87.5V11.8766C83.5618 7.87403 79.6324 3.95142 75.5302 0.0999999H75.4102V15.16H77.7702L77.7102 5.5ZM110.324 2.84V0.599999H100.664V15.16H110.604V12.92H103.004V8.96H109.524V6.72H103.004V2.84H110.324Z" fill="black"/>
</svg>
